<svg id="Layer_1" data-name="Layer 1" xmlns="http://www.w3.org/2000/svg" viewBox="0 0 511.59 579.47"><defs><style>.cls-1,.cls-4,.cls-8{fill:#3ab5fc;}.cls-2{fill:#a6a6a6;}.cls-3{fill:#fdfdfd;}.cls-4{font-size:26px;font-family:Perpetua;}.cls-5{letter-spacing:-0.08em;}.cls-6{letter-spacing:-0.08em;}.cls-7{letter-spacing:-0.07em;}.cls-8{stroke:#3ab5fc;stroke-miterlimit:10;stroke-width:2px;}</style></defs><path class="cls-1" d="M452.44.14Q553,69.74,653.61,139.33c14.14,9.78,28.32,19.5,42.25,29.56,6.78,4.89,10,11.64,7.52,20.23-2.18,7.56-6.93,12.58-14.85,13.65-6.29.86-11.51-2.09-16.58-5.61Q563.3,121.64,454.67,46.1c-5.13-3.58-8.35-3.22-13.23.19q-107.85,75.18-215.95,150c-12.39,8.59-22.59,7.61-29.83-2.93-6.11-8.89-2.91-19.47,8.85-27.65Q302.58,97.5,400.76,29.46C415,19.57,429.48,9.91,443.84.14Z" transform="translate(-192.62 -0.14)"/><path class="cls-2" d="M447.75,460.56H291.36c-15.94,0-22.84-6.95-22.84-23,0-76.44.1-152.89-.14-229.33,0-8.75,3.28-14.48,10.19-19.33q78.69-55.23,157.17-110.75c7.93-5.59,16.78-5.62,24.68-.06q78.24,55.14,156.52,110.21c7.41,5.2,11,11.21,11,20.69-.3,76.45-.17,152.89-.17,229.33,0,14.82-7.22,22.21-21.91,22.22Q526.8,460.58,447.75,460.56ZM308.11,370.81c-.62.89-1.76,1.78-1.77,2.68-.14,14.94-.1,29.88-.18,44.82,0,5,3.55,4.29,6.59,4.29q135.33,0,270.66.12c5.27,0,6.86-1.64,6.85-6.87q-.19-97.43,0-194.84a9.42,9.42,0,0,0-4.36-8.59q-67-47.17-133.9-94.55c-2.78-2-4.78-2.09-7.61-.08q-66.89,47.4-133.94,94.58A9.32,9.32,0,0,0,306,220.9q.2,70.26.06,140.52c0,3.5.51,6.22,4.2,7.37Z" transform="translate(-192.62 -0.14)"/><path class="cls-2" d="M355.35,540.78c-17.68,2.66-17.68,2.66-30.13-21.51,0,6.35-.31,11,.08,15.64.45,5.38-1.68,7.37-6.86,6.74a23.7,23.7,0,0,0-6,0c-6.08.82-7.82-1.79-7.71-7.76.35-17.81.31-35.63,0-53.44-.1-6.06,2.06-8.15,8-7.87,8.28.38,16.61-.06,24.9.14,10.54.24,15.06,4.84,15.23,15.23q.12,8.61-.14,17.23c-.06,1.95,0,4.76-1.18,5.69-9.39,7.52-2.63,14.25.56,21.29C353.38,534.94,355.73,537.37,355.35,540.78ZM325,494.88c1.26,3.13-2.53,8.78,4.55,8.92,5.75.12,4.26-4.36,4.16-7.4-.14-3.83,2.1-9.65-5-9.52C323,487,326.1,492,325,494.88Z" transform="translate(-192.62 -0.14)"/><path class="cls-2" d="M485.1,541.77c-8-1.07-16,2.85-21-2.33-4.29-4.36-5.87-11.42-9.82-19.78-.2,4.64-.37,6.7-.37,8.77-.05,13.3-3.59,16-16.76,13.2-3.71-.77-3.56-3-3.56-5.63,0-19.26.07-38.52,0-57.77,0-4.06,1.51-5.65,5.55-5.59,9.45.17,18.93-.3,28.36.18,10,.51,14.13,5.36,14.22,15.51,0,5.46,0,10.93,0,16.39,0,2.31.36,5.16-1.66,6.43-9.17,5.8-4.5,12-.94,18.31C481,532.92,482.6,536.59,485.1,541.77Zm-22.31-45.92c-.34-3.9,1.27-9-4.91-9s-3.88,5.23-3.88,8.33c0,3.34-2.32,8.7,4.52,8.61C464.83,503.71,462,498.7,462.79,495.85Z" transform="translate(-192.62 -0.14)"/><path class="cls-2" d="M488.53,507.14c0-6.59,0-13.18,0-19.77.08-9.3,4.55-14.06,14-14.61,4.55-.27,9.13-.08,13.7-.07,15.78,0,20.12,4.44,20.15,20.56,0,10.6.22,21.22-.1,31.81-.4,12.91-4.5,16.6-17.38,16.57-5.71,0-11.42.11-17.13,0-9.05-.15-13.09-4.09-13.24-13C488.43,521.47,488.53,514.31,488.53,507.14Zm27.54.92c0-5.46,0-10.91,0-16.36,0-3.05-1.31-5-4.6-4.82-2.76.17-4,1.93-4,4.61,0,10.62.06,21.24,0,31.85,0,3.34,1.4,4.58,4.65,4.5,3-.07,4-1.53,4-4.29C516,518.39,516.06,513.22,516.07,508.06Z" transform="translate(-192.62 -0.14)"/><path class="cls-2" d="M543.52,503.79c0-8.32.22-16.65,0-25-.3-9.41,6.64-5.48,10.89-6.05s8.47-.87,8.23,6.09c-.47,13.47-.28,27-.1,40.45,0,3.25-2,8.26,4.18,8.44,7,.19,4.46-5.42,4.53-8.77.26-12.91.39-25.83,0-38.73-.35-10.69,7.28-6.87,12.49-7.57,5.48-.72,8.32.75,8.12,7.31-.47,15.19-.09,30.41-.2,45.62-.08,11.47-4.78,16-16.23,16-6.29,0-12.58.16-18.87,0-7.89-.2-12.74-5-12.92-12.88C543.36,520.44,543.51,512.11,543.52,503.79Z" transform="translate(-192.62 -0.14)"/><path class="cls-2" d="M380.25,507.17c0-6.32-.1-12.63,0-18.94.2-10,4.51-14.79,14.49-15.44,6.27-.4,12.58-.21,18.87,0,4.1.13,8.24,1.45,10.68,4.7,3.95,5.26,6.34,12.84,2.71,17.59-3.41,4.46-11.24,1.75-17.08,1.3-3-.24-1.95-3.63-2.13-5.74s-.52-3.94-3.25-4.07c-3-.15-3.86,1.47-4.13,4.16-1.09,11.11.88,22.28-.83,33.39-.43,2.78.95,5.14,4.24,5.3,3.72.18,4.2-2.48,3.88-5.2-.36-3.06,1.68-6.68-3-8.79-3.89-1.75-2.19-6.12-1.74-9.23.54-3.65,4-2.33,6.37-2.42,18.81-.7,18.81-.66,18.77,17.91,0,16.71-3.33,19.51-20.06,20-27.29.88-28.5-2.56-27.81-27.67C380.3,511.76,380.24,509.46,380.25,507.17Z" transform="translate(-192.62 -0.14)"/><path class="cls-2" d="M251.33,506.31c0-8.89.21-17.79-.08-26.67-.17-5,1.24-7.33,6.71-7.1,8.85.38,17.73-.13,26.58.23,10.5.43,14.84,5.23,14.93,15.68,0,6,.16,12.06,0,18.07-.25,8.36-4.49,12.45-12.83,12.72a21.82,21.82,0,0,1-4.28-.07c-8.56-1.46-12,1.75-10.88,10.66.44,3.62,2.41,9.48-1.73,10.94-4.83,1.71-10.71.86-16.08.43-3.15-.25-2-3.52-2.31-5.63a6.15,6.15,0,0,1,0-.86Zm29.36-10.12c-.76-3.72,1.67-9.64-5.35-9.36s-4.46,6.19-4.55,9.92c-.08,3.39-2.3,8.61,4.64,8.72C283.11,505.59,279.65,499.77,280.69,496.19Z" transform="translate(-192.62 -0.14)"/><path class="cls-2" d="M598.53,507.12c0-9.48.16-19-.06-28.43-.1-4.39,1.32-6.2,5.89-6.07,9.15.25,18.33-.24,27.47.18,10.45.49,14.67,5.33,14.83,16q.11,7.32,0,14.65c-.13,11.22-4.52,15.69-15.47,15.83-13.7.18-14.3.21-13.58,13.47.45,8.46-3.3,9-10,9.1s-10.21-1.27-9.2-8.86c.56-4.24.12-8.61.12-12.91S598.52,511.43,598.53,507.12Zm18.69-11.52c1.55,3.37-3.1,9.85,5.24,9.85,6.69,0,4.95-5,4.9-8.57-.07-4.12,2-10-5.38-10.16C615,486.57,618.35,492.25,617.22,495.6Z" transform="translate(-192.62 -0.14)"/><path class="cls-3" d="M310.29,368.79c-3.69-1.15-4.2-3.87-4.2-7.37q.12-70.26-.06-140.52a9.32,9.32,0,0,1,4.44-8.53q67-47.19,133.94-94.58c2.83-2,4.83-1.89,7.61.08q66.87,47.38,133.9,94.55a9.42,9.42,0,0,1,4.36,8.59q-.18,97.42,0,194.84c0,5.23-1.58,6.88-6.85,6.87q-135.33-.21-270.66-.12c-3,0-6.62.75-6.59-4.29.08-14.94,0-29.88.18-44.82,0-.9,1.15-1.79,1.77-2.68,7.84,1.39,15.69,4,23.52,3.91,13.6-.09,23.27,5.46,32.05,15.53,6.33,7.26,14.95,12.48,26.27,16-4.87-9.85-8.89-17.69-12.59-25.68-.84-1.79-2.36-4.79,1-5.71,2.5-.68,5.76-1.86,7.33,2,.87,2.12,1.76,4.23,2.72,6.3,4.75,10.27,10.51,19.74,20.22,26.16,2.38,1.58,4.76,3.89,7.74,2.74,3.64-1.4,1.86-5,1.91-7.56.21-10.06.25-20.12,0-30.17-.11-5,2.42-6.7,6.77-6.76,5-.07,3.17,3.92,3.22,6.28.21,9.76,0,19.54.17,29.3.06,3-1.77,7.06,1.33,8.7,3.68,1.95,7.11-1.12,10-3.33,12.45-9.39,18.9-22.72,23.53-37.12,1.19-3.71,4.29-8,2-11.31-2.1-3.09-6.16,1.52-9.53.52a21.38,21.38,0,0,0-2.56-.42c15.72-9.32,32.27-14.34,50.57-11.94,5.42.71,8.9-1,8.88-7.23,0-11.73,5.45-20.4,14.79-27.16,3-2.14,5.31-5.22,7.65-8.12,8.43-10.46,14.9-21.56,13.59-35.95-1-11.47-11.9-23.19-23.5-24.14,5.8,18.15,5.8,22.95-.28,34.13a73.08,73.08,0,0,1-14.9,18.78c-21.78,20.12-47.65,33.23-74.95,43.81-26,10.09-52.58,18-80.33,21.89C340,366.31,325.22,368,310.29,368.79ZM421.56,255.33c.22,2.5-4.35,6.9,2.84,6.63,3.94-.14,8,.16,11.2,3.12,3.5,3.21-.61,7.16.68,11.46,5.71-4.94,9.76-9.92,12.58-15.92,2.65-5.63.46-9.35-4.79-11.6-5.58-2.41-11.58-2-17.48-2.22,4-13.71,4.63-14.38,17.56-13.79,12.71.58,24.68-1,35.61-9-2.51-2.24-4.9-1.64-6.89-1.19-14.15,3.22-27.82-.08-41.5-2.93-10.07-2.09-20.06-4.44-30.45-4.25-13.86.26-22.22,5.76-29.28,21.42,9.48-8.44,18.75-10.1,28.66-9.74,4.49.17,5.81.9,4.4,6a212.28,212.28,0,0,1-25.24,56.19c-4.63,7.36-9.77,14.4-14.68,21.59,21.35-13.07,38-30.68,51.67-51.16C417.85,257.84,418.06,254.9,421.56,255.33ZM430,312.27v8.61c0,21.61,0,21.59,19.79,11.66,3.46-1.73,6.21-3.44,6.09-8.18-.3-11.48-.06-23-.12-34.44,0-1.88.54-4.74-2.16-4.87a190.79,190.79,0,0,0-21.39,0c-3,.19-2.15,3.57-2.18,5.7C430,297.92,430,305.09,430,312.27Zm54.2-126.55c3.82,6.15,9.13,10.88,8.8,15.18-.37,4.81-8.71,5.13-12.68,9.31a12.75,12.75,0,0,0,2.89,1.87c4.45,1.33,11.07-2.46,13.16,2.21,1.65,3.68-1.11,9.33-1.86,14.12-.1.61-.81,1.65,1.24,1.78,2.28-2.42,5.12-4.86,7.26-7.82,3.42-4.73,6-3.86,9.17.26,2.24,2.88,4.44,6.12,8.29,7.83a8.65,8.65,0,0,0,.23-1.6c-.9-4.48-3.31-9.31-2.39-13.37,1.49-6.54,7.95-1.83,12-3.23,1-.36,2.35-.13,2.6-1.6.28-1.69-.85-2.53-2.09-3.35-3.22-2.14-9.2-2.7-9-6.65.16-3.66,4.27-7.13,6.59-10.71.56-.86,1.57-1.72.58-3-2.15-.94-3.79.75-5.52,1.42-10,3.84-9.88,3.89-13.34-6.3-.56-1.63-.41-4.32-3.37-4.07-3.37,4-1.1,12-6.26,13.08C496.27,192,491.06,188.18,484.24,185.72ZM390.56,330v2.58c0,22,3,23.79,23.09,13.8,2.44-1.22,4.15-2.7,4.11-5.82-.12-9.45,0-18.9-.06-28.35,0-3.5-1.94-4.73-5.4-5.12-20.9-2.38-21.68-1.79-21.72,18.61C390.58,327.12,390.58,328.55,390.56,330Zm79.13-8.52c21.28-8,25.69-13.35,25.68-30.15,0-19.84,0-19.7-19.79-18.72-4.4.22-6,1.51-6,6C469.82,292.61,469.69,306.65,469.69,321.46Zm-13.05,84.3c18.21-4.27,44.85-28.74,48.9-44,.41-1.53,1.45-4-1.08-4.07-8.54-.24-17.1-.05-25.65.14-1.57,0-2.21,1.62-2.56,3.07A142.09,142.09,0,0,1,456.64,405.76Zm-78.12-64c-.22-18.25,2.29-15.31-14.92-15.65-2.29,0-4.58.11-6.86,0-3.86-.22-5.83,1.21-5.74,5.4.17,8,.11,16,.08,24.07,0,2.88.46,5.36,4.07,5,7.32-.75,15.17-1.16,21.33-4.85C381.15,352.88,377.55,346,378.52,341.73ZM439,200c.15-7.18-4.33-11.94-11.41-12.12a12.47,12.47,0,0,0-12.69,11.32c-.39,6.31,5.82,12.88,12.26,13S438.88,206.72,439,200Z" transform="translate(-192.62 -0.14)"/><path class="cls-1" d="M310.29,368.79c14.93-.78,29.74-2.48,44.56-4.57,27.75-3.93,54.32-11.8,80.33-21.89,27.3-10.58,53.17-23.69,74.95-43.81A73.08,73.08,0,0,0,525,279.74c6.08-11.18,6.08-16,.28-34.13,11.6.95,22.46,12.67,23.5,24.14,1.31,14.39-5.16,25.49-13.59,35.95-2.34,2.9-4.69,6-7.65,8.12-9.34,6.76-14.83,15.43-14.79,27.16,0,6.27-3.46,7.94-8.88,7.23-18.3-2.4-34.85,2.62-50.57,11.94a21.38,21.38,0,0,1,2.56.42c3.37,1,7.43-3.61,9.53-.52,2.26,3.31-.84,7.6-2,11.31-4.63,14.4-11.08,27.73-23.53,37.12-2.92,2.21-6.35,5.28-10,3.33-3.1-1.64-1.27-5.74-1.33-8.7-.21-9.76,0-19.54-.17-29.3-.05-2.36,1.8-6.35-3.22-6.28-4.35.06-6.88,1.79-6.77,6.76.22,10,.18,20.11,0,30.17-.05,2.57,1.73,6.16-1.91,7.56-3,1.15-5.36-1.16-7.74-2.74-9.71-6.42-15.47-15.89-20.22-26.16-1-2.07-1.85-4.18-2.72-6.3-1.57-3.86-4.83-2.68-7.33-2-3.39.92-1.87,3.92-1,5.71,3.7,8,7.72,15.83,12.59,25.68-11.32-3.48-19.94-8.7-26.27-16-8.78-10.07-18.45-15.62-32.05-15.53-7.83,0-15.68-2.52-23.52-3.91Z" transform="translate(-192.62 -0.14)"/><path class="cls-3" d="M325,494.88c1.08-2.86-2-7.89,3.73-8,7.08-.13,4.84,5.69,5,9.52.1,3,1.59,7.52-4.16,7.4C322.49,503.66,326.28,498,325,494.88Z" transform="translate(-192.62 -0.14)"/><path class="cls-3" d="M462.79,495.85c-.81,2.85,2,7.86-4.27,7.94-6.84.09-4.53-5.27-4.52-8.61,0-3.1-2.26-8.31,3.88-8.33S462.45,492,462.79,495.85Z" transform="translate(-192.62 -0.14)"/><path class="cls-3" d="M516.07,508.06c0,5.16-.05,10.33,0,15.49,0,2.76-1,4.22-4,4.29-3.25.08-4.68-1.16-4.65-4.5.08-10.61,0-21.23,0-31.85,0-2.68,1.22-4.44,4-4.61,3.29-.2,4.59,1.77,4.6,4.82C516.09,497.15,516.07,502.6,516.07,508.06Z" transform="translate(-192.62 -0.14)"/><path class="cls-3" d="M280.69,496.19c-1,3.58,2.42,9.4-5.26,9.28-6.94-.11-4.72-5.33-4.64-8.72.09-3.73-2.38-9.65,4.55-9.92S279.93,492.47,280.69,496.19Z" transform="translate(-192.62 -0.14)"/><path class="cls-3" d="M617.22,495.6c1.13-3.35-2.21-9,4.76-8.88,7.38.16,5.31,6,5.38,10.16,0,3.56,1.79,8.56-4.9,8.57C614.12,505.45,618.77,499,617.22,495.6Z" transform="translate(-192.62 -0.14)"/><path class="cls-1" d="M421.56,255.33c-3.5-.43-3.71,2.51-5.11,4.6-13.7,20.48-30.32,38.09-51.67,51.16,4.91-7.19,10.05-14.23,14.68-21.59a212.28,212.28,0,0,0,25.24-56.19c1.41-5.06.09-5.79-4.4-6-9.91-.36-19.18,1.3-28.66,9.74,7.06-15.66,15.42-21.16,29.28-21.42,10.39-.19,20.38,2.16,30.45,4.25,13.68,2.85,27.35,6.15,41.5,2.93,2-.45,4.38-1,6.89,1.19-10.93,7.92-22.9,9.55-35.61,9-12.93-.59-13.52.08-17.56,13.79l.08-.09c-1.89.53-2.69,1.61-1.76,3.56l.06-.11c-2.57.83-4.77,1.9-3.51,5.29Z" transform="translate(-192.62 -0.14)"/><path class="cls-2" d="M430,312.27c0-7.18-.07-14.35,0-21.53,0-2.13-.84-5.51,2.18-5.7a190.79,190.79,0,0,1,21.39,0c2.7.13,2.15,3,2.16,4.87.06,11.48-.18,23,.12,34.44.12,4.74-2.63,6.45-6.09,8.18-19.79,9.93-19.78,9.95-19.79-11.66Q430,316.58,430,312.27Z" transform="translate(-192.62 -0.14)"/><path class="cls-1" d="M484.24,185.72c6.82,2.46,12,6.25,16.24,5.36,5.16-1.11,2.89-9.11,6.26-13.08,3-.25,2.81,2.44,3.37,4.07,3.46,10.19,3.37,10.14,13.34,6.3,1.73-.67,3.37-2.36,5.52-1.42,1,1.28,0,2.14-.58,3-2.32,3.58-6.43,7.05-6.59,10.71-.18,4,5.8,4.51,9,6.65,1.24.82,2.37,1.66,2.09,3.35-.25,1.47-1.56,1.24-2.6,1.6-4,1.4-10.47-3.31-12,3.23-.92,4.06,1.49,8.89,2.39,13.37a8.65,8.65,0,0,1-.23,1.6c-3.85-1.71-6-5-8.29-7.83-3.19-4.12-5.75-5-9.17-.26-2.14,3-5,5.4-7.26,7.82-2.05-.13-1.34-1.17-1.24-1.78.75-4.79,3.51-10.44,1.86-14.12-2.09-4.67-8.71-.88-13.16-2.21a12.75,12.75,0,0,1-2.89-1.87c4-4.18,12.31-4.5,12.68-9.31C493.37,196.6,488.06,191.87,484.24,185.72Z" transform="translate(-192.62 -0.14)"/><path class="cls-2" d="M390.57,330c0-1.43,0-2.86,0-4.3,0-20.4.82-21,21.72-18.61,3.46.39,5.38,1.62,5.4,5.12.05,9.45-.06,18.9.06,28.35,0,3.12-1.67,4.6-4.11,5.82-20.09,10-23.13,8.18-23.09-13.8C390.56,331.7,390.56,330.84,390.57,330Z" transform="translate(-192.62 -0.14)"/><path class="cls-2" d="M469.69,321.46c0-14.81.13-28.85-.07-42.87-.06-4.49,1.56-5.78,6-6,19.79-1,19.78-1.12,19.79,18.72C495.38,308.11,491,313.43,469.69,321.46Z" transform="translate(-192.62 -0.14)"/><path class="cls-1" d="M456.64,405.76a142.09,142.09,0,0,0,19.61-44.88c.35-1.45,1-3,2.56-3.07,8.55-.19,17.11-.38,25.65-.14,2.53.07,1.49,2.54,1.08,4.07C501.49,377,474.85,401.49,456.64,405.76Z" transform="translate(-192.62 -0.14)"/><path class="cls-2" d="M378.52,341.73c-1,4.29,2.63,11.15-2,13.94-6.16,3.69-14,4.1-21.33,4.85-3.61.37-4.09-2.11-4.07-5,0-8,.09-16-.08-24.07-.09-4.19,1.88-5.62,5.74-5.4,2.28.13,4.57,0,6.86,0C380.81,326.42,378.3,323.48,378.52,341.73Z" transform="translate(-192.62 -0.14)"/><path class="cls-1" d="M426.59,246.8c5.9.19,11.9-.19,17.48,2.22,5.25,2.25,7.44,6,4.79,11.6-2.82,6-6.87,11-12.58,15.92-1.29-4.3,2.82-8.25-.68-11.46-3.22-3-7.26-3.26-11.2-3.12-7.19.27-2.62-4.13-2.84-6.63l-.1.12c2.44-.91,4-2.39,3.51-5.29l-.06.11c1.76-.6,3.51-1.21,1.76-3.56Z" transform="translate(-192.62 -0.14)"/><path class="cls-1" d="M439,200c-.14,6.69-5.53,12.23-11.84,12.16s-12.65-6.65-12.26-13a12.47,12.47,0,0,1,12.69-11.32C434.69,188.09,439.17,192.85,439,200Z" transform="translate(-192.62 -0.14)"/><path class="cls-3" d="M425,250.16c.53,2.9-1.07,4.38-3.51,5.29C420.2,252.06,422.4,251,425,250.16Z" transform="translate(-192.62 -0.14)"/><path class="cls-3" d="M426.67,246.71c1.75,2.35,0,3-1.76,3.56C424,248.32,424.78,247.24,426.67,246.71Z" transform="translate(-192.62 -0.14)"/><text class="cls-4" transform="translate(44.92 571.58)">REAL ES<tspan class="cls-5" x="87.1" y="0">TA</tspan><tspan x="113.03" y="0">TE</tspan><tspan class="cls-6" x="140.92" y="0"> </tspan><tspan x="144.82" y="0">AND JOB CONSU</tspan><tspan class="cls-7" x="327.74" y="0">L</tspan><tspan class="cls-5" x="338.93" y="0">T</tspan><tspan x="351.48" y="0">ANCY</tspan></text><line class="cls-8" x1="242.72" y1="574.18" x2="46.32" y2="574.18"/><line class="cls-8" x1="456.15" y1="574.18" x2="255.64" y2="574.18"/></svg>